<?xml version="1.0" standalone="no"?>
<!DOCTYPE svg PUBLIC "-//W3C//DTD SVG 20010904//EN"
 "http://www.w3.org/TR/2001/REC-SVG-20010904/DTD/svg10.dtd">
<svg version="1.0" xmlns="http://www.w3.org/2000/svg"
 width="560.000000pt" height="560.000000pt" viewBox="0 0 560.000000 560.000000"
 preserveAspectRatio="xMidYMid meet">
<metadata>
Created by potrace 1.14, written by Peter Selinger 2001-2017
</metadata>
<g transform="translate(0.000000,560.000000) scale(0.100000,-0.100000)"
fill="#000000" stroke="none">
<path d="M3899 5346 c-92 -35 -152 -93 -195 -185 -30 -65 -28 -185 6 -256 26
-55 110 -142 147 -151 16 -4 22 -12 19 -23 -34 -120 -69 -249 -71 -261 -2 -8
-4 -15 -5 -15 -1 0 -3 -7 -5 -15 -2 -8 -9 -33 -15 -55 -6 -22 -13 -49 -15 -59
-2 -11 -11 -40 -19 -65 -8 -25 -34 -116 -57 -201 -23 -85 -43 -156 -44 -158
-1 -1 -22 2 -46 8 -24 7 -53 11 -64 11 -146 -4 -246 -67 -308 -191 -20 -41
-25 -45 -62 -46 -22 -1 -76 -5 -120 -8 -44 -4 -109 -9 -144 -11 -66 -4 -211
-15 -271 -20 -19 -2 -83 -6 -141 -10 -58 -3 -114 -8 -125 -9 -12 -2 -31 11
-52 35 -52 61 -131 94 -227 95 -44 1 -86 -3 -92 -8 -7 -6 -13 -8 -13 -4 0 11
-76 -34 -116 -68 -22 -19 -53 -60 -69 -92 -39 -76 -43 -180 -12 -263 l20 -54
-33 -61 c-18 -34 -45 -83 -60 -111 -15 -27 -44 -81 -65 -120 -21 -38 -52 -95
-68 -125 -47 -86 -145 -267 -195 -360 -25 -47 -52 -93 -60 -102 -8 -10 -12
-18 -9 -18 3 0 -10 -28 -29 -62 -20 -35 -57 -101 -82 -148 -25 -47 -78 -143
-117 -215 -39 -71 -78 -146 -88 -165 -10 -19 -22 -42 -27 -50 -15 -23 -202
-369 -235 -436 -17 -32 -33 -61 -36 -64 -3 -3 -25 -43 -49 -90 -24 -47 -47
-87 -50 -90 -3 -3 -26 -44 -50 -92 -65 -127 -58 -121 -116 -99 -53 21 -179 26
-201 8 -7 -5 -13 -7 -13 -3 0 11 -76 -34 -116 -68 -22 -19 -53 -60 -69 -92
-26 -52 -30 -70 -30 -144 0 -103 24 -162 94 -229 68 -66 119 -86 221 -86 122
0 191 38 280 152 22 27 33 32 85 37 33 4 71 8 85 10 47 8 132 21 285 42 22 3
51 7 65 9 41 6 322 46 360 50 19 3 51 7 70 10 56 8 112 16 150 20 19 2 44 6
55 9 11 2 45 7 75 11 30 3 67 8 81 11 22 3 29 -2 39 -27 19 -46 98 -121 155
-149 67 -33 178 -37 250 -9 70 27 135 86 170 155 38 75 43 180 13 262 -18 48
-19 56 -5 85 9 18 42 93 75 167 59 133 86 194 143 318 16 35 29 65 29 68 0 2
18 43 40 90 22 47 40 88 40 90 0 2 16 38 35 80 19 41 35 77 35 79 0 3 18 41
39 85 22 44 40 82 40 83 -1 8 21 57 98 227 14 30 40 89 58 130 18 41 43 98 55
125 67 147 142 316 167 375 8 19 19 42 24 50 5 8 12 22 15 30 3 8 26 61 50
116 24 56 44 106 44 113 0 6 5 11 10 11 6 0 10 6 10 13 0 7 11 36 24 64 17 34
33 52 49 57 109 27 210 146 224 264 3 26 10 52 17 58 6 6 63 28 126 48 63 21
122 40 130 43 8 3 20 7 25 9 24 7 701 235 715 241 8 3 20 7 25 8 6 2 45 15 87
30 l77 27 30 -25 c63 -53 120 -72 211 -72 74 0 92 4 144 30 64 33 116 86 149
155 17 35 22 64 22 130 0 75 -4 92 -30 144 -55 108 -173 181 -285 176 -39 -2
-84 -7 -87 -10 -2 -2 -6 -3 -10 -4 -27 -5 -90 -43 -125 -77 -23 -21 -43 -39
-44 -39 -2 0 -106 64 -231 141 -125 78 -289 179 -364 226 l-137 84 18 48 c28
73 22 182 -15 254 -55 110 -150 170 -275 174 -45 2 -89 -3 -111 -11z m330
-621 c29 -19 55 -35 58 -35 2 0 24 -13 48 -30 24 -16 46 -30 49 -30 2 0 39
-22 80 -50 42 -27 80 -50 85 -50 5 0 11 -3 13 -7 2 -5 15 -15 29 -23 14 -8
102 -62 196 -120 166 -102 170 -106 172 -140 1 -19 3 -44 4 -55 2 -16 -11 -24
-63 -43 -36 -12 -72 -25 -80 -27 -8 -2 -62 -20 -120 -40 -58 -20 -112 -38
-120 -40 -8 -2 -188 -62 -400 -134 -212 -72 -388 -127 -392 -123 -5 5 8 66 28
138 20 71 38 136 39 144 2 8 4 15 5 15 1 0 3 7 5 15 2 8 13 47 23 85 148 537
155 560 170 551 4 -2 27 4 52 14 61 24 59 25 119 -15z m-1004 -1250 c29 -67
75 -118 136 -153 27 -15 49 -30 49 -34 0 -4 -13 -36 -29 -70 -50 -111 -67
-148 -189 -423 -66 -148 -129 -290 -140 -315 -11 -25 -27 -61 -35 -80 -9 -19
-36 -80 -62 -135 -25 -55 -46 -102 -47 -105 0 -3 -12 -30 -25 -60 -14 -30 -43
-95 -65 -145 -22 -49 -56 -123 -74 -163 -19 -41 -34 -76 -34 -78 0 -2 -15 -37
-33 -76 -33 -71 -199 -448 -211 -478 -3 -8 -10 -22 -15 -30 -5 -8 -20 -39 -32
-67 -12 -29 -26 -53 -31 -53 -5 0 -24 6 -42 14 -20 8 -64 13 -112 12 -96 -2
-154 -26 -216 -88 -40 -39 -96 -128 -82 -128 4 0 1 -6 -5 -13 -6 -8 -8 -17 -5
-20 10 -10 -35 -24 -101 -31 -33 -4 -71 -9 -85 -11 -32 -6 -73 -12 -130 -20
-25 -3 -56 -8 -70 -10 -14 -2 -50 -7 -80 -10 -30 -4 -71 -10 -90 -14 -19 -4
-47 -7 -62 -7 -16 1 -28 -1 -28 -4 0 -3 -8 -6 -17 -6 -29 -2 -136 -14 -163
-19 -14 -2 -43 -7 -65 -10 -23 -3 -51 -7 -64 -10 -13 -2 -49 -7 -80 -11 -31
-3 -63 -8 -72 -9 -14 -3 -45 -7 -146 -20 -18 -2 -33 1 -33 6 0 5 0 11 0 14 0
3 -8 27 -19 54 l-18 49 40 74 c22 40 55 100 73 133 18 33 40 74 48 90 8 17 36
68 61 115 26 47 57 103 69 125 13 22 65 119 116 215 52 96 98 177 102 178 4 2
8 8 8 14 0 5 30 65 66 131 37 67 85 156 107 197 22 41 55 101 73 133 19 32 34
60 34 62 0 2 55 104 121 227 67 123 140 257 162 298 22 41 71 131 109 200 38
69 83 153 100 186 l32 62 41 -18 c59 -25 184 -22 247 7 84 38 167 140 182 224
3 13 5 26 6 29 1 3 1 20 0 38 -2 32 -1 32 47 34 26 0 59 2 73 3 27 3 146 12
275 21 44 3 100 7 125 9 25 3 87 7 139 10 52 3 96 7 97 8 2 1 13 3 25 3 16 0
27 -13 44 -51z"/>
</g>
</svg>
